<mxfile host="app.diagrams.net" agent="Mozilla/5.0 (Windows NT 10.0; Win64; x64) AppleWebKit/537.36 (KHTML, like Gecko) Chrome/137.0.0.0 Safari/537.36" version="27.1.1">
  <diagram name="Page-1" id="_wWLoJ_BeCfrTa7x0FBa">
    <mxGraphModel dx="1722" dy="919" grid="1" gridSize="10" guides="1" tooltips="1" connect="1" arrows="1" fold="1" page="1" pageScale="1" pageWidth="850" pageHeight="1100" math="0" shadow="0">
      <root>
        <mxCell id="0" />
        <mxCell id="1" parent="0" />
        <mxCell id="_sExKDqD0e2Ua855sGM4-2" value="Byte&lt;div&gt;Shift&lt;/div&gt;" style="rounded=0;whiteSpace=wrap;html=1;" vertex="1" parent="1">
          <mxGeometry x="150" y="170" width="70" height="70" as="geometry" />
        </mxCell>
        <mxCell id="_sExKDqD0e2Ua855sGM4-3" value="Number of Nodes" style="rounded=0;whiteSpace=wrap;html=1;" vertex="1" parent="1">
          <mxGeometry x="220" y="170" width="70" height="70" as="geometry" />
        </mxCell>
        <mxCell id="_sExKDqD0e2Ua855sGM4-4" value="Number of Data Segments" style="rounded=0;whiteSpace=wrap;html=1;" vertex="1" parent="1">
          <mxGeometry x="290" y="170" width="70" height="70" as="geometry" />
        </mxCell>
        <mxCell id="_sExKDqD0e2Ua855sGM4-5" value="Data Segments" style="rounded=0;whiteSpace=wrap;html=1;" vertex="1" parent="1">
          <mxGeometry x="360" y="170" width="360" height="70" as="geometry" />
        </mxCell>
        <mxCell id="_sExKDqD0e2Ua855sGM4-6" value="1 Byte" style="text;html=1;align=center;verticalAlign=middle;whiteSpace=wrap;rounded=0;" vertex="1" parent="1">
          <mxGeometry x="150" y="150" width="70" height="30" as="geometry" />
        </mxCell>
        <mxCell id="_sExKDqD0e2Ua855sGM4-7" value="1 Byte" style="text;html=1;align=center;verticalAlign=middle;whiteSpace=wrap;rounded=0;" vertex="1" parent="1">
          <mxGeometry x="220" y="150" width="70" height="30" as="geometry" />
        </mxCell>
        <mxCell id="_sExKDqD0e2Ua855sGM4-8" value="2 Bytes" style="text;html=1;align=center;verticalAlign=middle;whiteSpace=wrap;rounded=0;" vertex="1" parent="1">
          <mxGeometry x="290" y="150" width="70" height="30" as="geometry" />
        </mxCell>
        <mxCell id="_sExKDqD0e2Ua855sGM4-9" value="0-2048 Data Segments" style="text;html=1;align=center;verticalAlign=middle;whiteSpace=wrap;rounded=0;" vertex="1" parent="1">
          <mxGeometry x="360" y="150" width="360" height="30" as="geometry" />
        </mxCell>
        <mxCell id="_sExKDqD0e2Ua855sGM4-10" value="Data&lt;div&gt;Segment&lt;/div&gt;&lt;div&gt;ID&lt;/div&gt;" style="rounded=0;whiteSpace=wrap;html=1;" vertex="1" parent="1">
          <mxGeometry x="150" y="290" width="70" height="70" as="geometry" />
        </mxCell>
        <mxCell id="_sExKDqD0e2Ua855sGM4-11" value="Node ID" style="rounded=0;whiteSpace=wrap;html=1;" vertex="1" parent="1">
          <mxGeometry x="220" y="290" width="70" height="70" as="geometry" />
        </mxCell>
        <mxCell id="_sExKDqD0e2Ua855sGM4-12" value="Data&lt;div&gt;Segment&lt;br&gt;&lt;div&gt;Name&lt;/div&gt;&lt;/div&gt;" style="rounded=0;whiteSpace=wrap;html=1;" vertex="1" parent="1">
          <mxGeometry x="290" y="290" width="70" height="70" as="geometry" />
        </mxCell>
        <mxCell id="_sExKDqD0e2Ua855sGM4-13" value="Data&lt;div&gt;Frequency&lt;/div&gt;" style="rounded=0;whiteSpace=wrap;html=1;" vertex="1" parent="1">
          <mxGeometry x="360" y="290" width="70" height="70" as="geometry" />
        </mxCell>
        <mxCell id="_sExKDqD0e2Ua855sGM4-14" value="Number of&lt;div&gt;Variables&lt;/div&gt;" style="rounded=0;whiteSpace=wrap;html=1;" vertex="1" parent="1">
          <mxGeometry x="430" y="290" width="70" height="70" as="geometry" />
        </mxCell>
        <mxCell id="_sExKDqD0e2Ua855sGM4-15" value="Variable Data" style="rounded=0;whiteSpace=wrap;html=1;" vertex="1" parent="1">
          <mxGeometry x="500" y="290" width="220" height="70" as="geometry" />
        </mxCell>
        <mxCell id="_sExKDqD0e2Ua855sGM4-16" value="Variable&lt;div&gt;Name&lt;/div&gt;" style="rounded=0;whiteSpace=wrap;html=1;" vertex="1" parent="1">
          <mxGeometry x="150" y="410" width="280" height="70" as="geometry" />
        </mxCell>
        <mxCell id="_sExKDqD0e2Ua855sGM4-17" value="Variable&lt;div&gt;Size&lt;/div&gt;" style="rounded=0;whiteSpace=wrap;html=1;" vertex="1" parent="1">
          <mxGeometry x="430" y="410" width="290" height="70" as="geometry" />
        </mxCell>
        <mxCell id="_sExKDqD0e2Ua855sGM4-18" value="2 Bytes" style="text;html=1;align=center;verticalAlign=middle;whiteSpace=wrap;rounded=0;" vertex="1" parent="1">
          <mxGeometry x="150" y="270" width="70" height="30" as="geometry" />
        </mxCell>
        <mxCell id="_sExKDqD0e2Ua855sGM4-19" value="1 Byte" style="text;html=1;align=center;verticalAlign=middle;whiteSpace=wrap;rounded=0;" vertex="1" parent="1">
          <mxGeometry x="220" y="270" width="70" height="30" as="geometry" />
        </mxCell>
        <mxCell id="_sExKDqD0e2Ua855sGM4-20" value="0-32 Bytes" style="text;html=1;align=center;verticalAlign=middle;whiteSpace=wrap;rounded=0;" vertex="1" parent="1">
          <mxGeometry x="290" y="270" width="70" height="30" as="geometry" />
        </mxCell>
        <mxCell id="_sExKDqD0e2Ua855sGM4-21" value="2 Bytes" style="text;html=1;align=center;verticalAlign=middle;whiteSpace=wrap;rounded=0;" vertex="1" parent="1">
          <mxGeometry x="360" y="270" width="70" height="30" as="geometry" />
        </mxCell>
        <mxCell id="_sExKDqD0e2Ua855sGM4-22" value="1 Byte" style="text;html=1;align=center;verticalAlign=middle;whiteSpace=wrap;rounded=0;" vertex="1" parent="1">
          <mxGeometry x="430" y="270" width="70" height="30" as="geometry" />
        </mxCell>
        <mxCell id="_sExKDqD0e2Ua855sGM4-23" value="0-64 Variables" style="text;html=1;align=center;verticalAlign=middle;whiteSpace=wrap;rounded=0;" vertex="1" parent="1">
          <mxGeometry x="500" y="270" width="220" height="30" as="geometry" />
        </mxCell>
        <mxCell id="_sExKDqD0e2Ua855sGM4-24" value="1 Byte" style="text;html=1;align=center;verticalAlign=middle;whiteSpace=wrap;rounded=0;" vertex="1" parent="1">
          <mxGeometry x="430" y="390" width="290" height="30" as="geometry" />
        </mxCell>
        <mxCell id="_sExKDqD0e2Ua855sGM4-25" value="0-32 Bytes" style="text;html=1;align=center;verticalAlign=middle;whiteSpace=wrap;rounded=0;" vertex="1" parent="1">
          <mxGeometry x="150" y="390" width="280" height="30" as="geometry" />
        </mxCell>
        <mxCell id="_sExKDqD0e2Ua855sGM4-26" value="Metadata" style="text;html=1;align=center;verticalAlign=middle;whiteSpace=wrap;rounded=0;" vertex="1" parent="1">
          <mxGeometry x="60" y="190" width="70" height="30" as="geometry" />
        </mxCell>
        <mxCell id="_sExKDqD0e2Ua855sGM4-27" value="Data Segment" style="text;html=1;align=center;verticalAlign=middle;whiteSpace=wrap;rounded=0;" vertex="1" parent="1">
          <mxGeometry x="60" y="310" width="70" height="30" as="geometry" />
        </mxCell>
        <mxCell id="_sExKDqD0e2Ua855sGM4-28" value="Variable Data" style="text;html=1;align=center;verticalAlign=middle;whiteSpace=wrap;rounded=0;" vertex="1" parent="1">
          <mxGeometry x="60" y="430" width="70" height="30" as="geometry" />
        </mxCell>
      </root>
    </mxGraphModel>
  </diagram>
</mxfile>
